<?xml version="1.0" encoding="UTF-8"?>
<svg xmlns="http://www.w3.org/2000/svg" baseProfile="tiny" version="1.2" viewBox="0 0 512 512">
  <!-- Generator: Adobe Illustrator 29.7.0, SVG Export Plug-In . SVG Version: 2.1.1 Build 138)  -->
  <g id="Rectangles">
    <rect width="512" height="512" rx="25.6" ry="25.6" fill="#0171c9"/>
  </g>
  <g id="Pathes">
    <path d="M404.55,132c-6.5-8.2-15.73-14.37-25.98-17.39-9.16-2.7-18.5-2.62-26.74.16-2.6-9.51-8.16-18.37-15.98-25.31-8.99-7.99-20.14-12.73-31.41-13.36-10.51-.59-21.21,2.36-30.55,8.34-2.44-4.17-5.36-7.85-8.59-10.79-10.86-9.86-25.97-13.67-42.56-10.71-16.33,2.91-29.85,11.66-38.06,24.63-.66,1.04-1.29,2.13-1.88,3.26-1.74-.16-3.43-.21-5.05-.15-9.2.34-18.46,3.39-26.77,8.83-7.91,5.18-14.64,12.26-19.46,20.49-8.35,14.25-11.67,32.38-9.45,51.33-10.69,4.94-19.21,14.22-24.19,26.43-5.09,12.5-5.77,26.75-1.85,39.08,6.91,21.74,26.41,39.93,51.47,48.32-6.46,12.8-3.52,30.35,7.59,41.33,10.81,10.69,28.07,15.11,45.03,11.54,7.88-1.66,15.81-4.95,23.62-9.8.31,17.79-.59,39.04-6.33,59.5-4.81,17.11-13.07,32.34-23.91,44.04-2.9,3.12-3.63,7.49-1.93,11.4,1.72,3.93,5.44,6.37,9.72,6.37h114.33c4.3,0,8.02-2.45,9.71-6.4,1.7-3.97.9-8.39-2.09-11.52-8.86-9.28-16.17-23.24-21.16-40.37-5.47-18.8-7.85-38.53-7.24-58.17,8.35,4.15,19.98,8.18,33.73,8.18,10.1,0,21.35-2.18,33.26-8.08,34.76-17.23,36.84-50.93,36.65-60.85-.28-14.8-2.97-24.15-10.79-36.54,7.3-4.94,24.5-18.8,30.33-42.82,4.89-20.14-.53-44.64-13.48-60.96ZM295.14,393.27c5.38,18.49,13.08,33.07,22.87,43.34,1.44,1.51.88,3.2.68,3.68-.2.47-1.02,2.01-3.06,2.01h-114.33c-2.05,0-2.89-1.55-3.09-2.03-.2-.47-.77-2.11.6-3.59,11.61-12.53,20.45-28.78,25.57-47,6.73-23.96,7.08-48.71,6.43-68.21,0-.02,0-.03,0-.05-.03-1.03-.07-2.04-.11-3.04-.42-10.69-1.19-23.07-5.08-34.79-4.26-12.83-11.94-23.07-21.63-28.84-1.4-.83-2.82-1.57-4.21-2.29-2.9-1.5-5.63-2.91-7.64-4.95-1.47-1.5-2.42-3.7-2.4-5.61.01-1.08.33-1.94.95-2.54.92-.9,3.64-1.4,6.53-1.4,1.91,0,3.9.22,5.48.69,9.53,2.81,25.06,12.29,36.92,22.52.99.86,2.37,1.11,3.6.66,1.23-.45,2.12-1.53,2.33-2.83,3.65-22.8,9.92-45.18,18.65-66.51,1.22-2.99,2.38-5.6,4.26-7.34,1.37-1.27,3.67-2.1,5.14-1.3,1.92,1.04,2.49,4.35,1.75,10.1-3.06,23.79-2.71,47.9,1.02,71.66.23,1.45,1.31,2.62,2.74,2.96,1.43.34,2.92-.22,3.78-1.42,5.5-7.72,11.66-15.02,18.28-21.7,1.49-1.5,3.2-3.03,4.6-3.03.01,0,.03,0,.04,0,1.44.03,2.92,2.14,2.98,4.26.08,2.72-1.26,5.56-2.68,8.57l-.19.4c-10.38,22.06-16.41,46.21-17.98,70.64-.09.38-.11.76-.08,1.14-1.3,22.19,1.09,44.58,7.27,65.83ZM411,191.25c-6.55,26.97-29.85,40.12-30.08,40.25-.89.49-1.53,1.33-1.77,2.31-.24.99-.06,2.03.51,2.87,8.72,12.99,11.32,21.02,11.61,35.77.11,5.49-.53,16.38-5.93,27.71-5.52,11.56-14.5,20.49-26.69,26.53-27.3,13.53-50.74,5.39-63.36-1.57,1.67-22.97,7.45-45.64,17.21-66.39l.19-.4c1.64-3.47,3.5-7.41,3.37-11.86-.19-6.85-5.37-11.19-10.06-11.29-4.69-.09-8.23,3.46-9.92,5.17-4.84,4.88-9.43,10.07-13.72,15.51-2.46-20.28-2.39-40.76.21-60.99.47-3.68,1.73-13.47-5.48-17.38-4.06-2.2-9.61-1.24-13.49,2.35-2.97,2.74-4.55,6.26-6.05,9.91-8.14,19.91-14.2,40.71-18.04,61.91-13.4-10.6-27.01-17.68-34.72-19.95-3.99-1.18-14.35-2.19-19.12,2.48-2.01,1.97-3.09,4.61-3.12,7.64-.04,3.79,1.68,7.91,4.47,10.75,2.81,2.86,6.2,4.61,9.47,6.3,1.35.7,2.62,1.35,3.82,2.07,8.19,4.88,14.75,13.73,18.47,24.91,3.59,10.82,4.32,22.6,4.72,32.79.01.35.03.71.04,1.07-8.27,5.71-16.63,9.48-24.87,11.21-14.62,3.07-29.35-.61-38.45-9.61-4.62-4.56-7.75-11.04-8.61-17.76-.88-6.91.67-13.42,4.36-18.33.72-.95.92-2.2.53-3.33-.38-1.13-1.3-2-2.45-2.32-24.92-6.98-44.49-24.2-51.09-44.95-3.42-10.75-2.82-23.2,1.65-34.16,4.61-11.32,12.68-19.67,22.73-23.52,1.58-.6,2.53-2.22,2.29-3.9-2.66-18.33.24-35.88,8.17-49.42,8.82-15.06,24.62-25.17,40.26-25.74,1.99-.07,4.12.06,6.34.4,1.59.24,3.15-.59,3.83-2.05.79-1.71,1.67-3.33,2.61-4.81,9.12-14.4,23.1-19.58,33.22-21.38,10.14-1.81,24.68-1.72,36.42,8.94,3.48,3.16,6.56,7.41,8.92,12.3.47.97,1.35,1.69,2.4,1.94,1.05.26,2.16.03,3.03-.62,8.73-6.56,19.12-9.86,29.25-9.3,19.91,1.11,38.2,17.37,41.63,37.02.19,1.11.9,2.07,1.9,2.59,1,.52,2.19.54,3.21.06,7.57-3.58,16.71-4.09,25.75-1.43,8.83,2.6,16.77,7.91,22.35,14.95,11.46,14.44,16.44,36.96,12.12,54.76Z" fill="#fff" stroke="#fff" stroke-miterlimit="10" stroke-width="15.36"/>
  </g>
</svg>