<svg xmlns="http://www.w3.org/2000/svg" baseProfile="tiny" version="1.2" viewBox="0 0 512 512"><rect width="512" height="512" fill="#0171c9" rx="25.6" ry="25.6"/><g fill="#fff"><path d="M404.55 132c-6.5-8.2-15.73-14.37-25.98-17.39-9.16-2.7-18.5-2.62-26.74.16-2.6-9.51-8.16-18.37-15.98-25.31-8.99-7.99-20.14-12.73-31.41-13.36-10.51-.59-21.21 2.36-30.55 8.34-2.44-4.17-5.36-7.85-8.59-10.79-10.86-9.86-25.97-13.67-42.56-10.71-16.33 2.91-29.85 11.66-38.06 24.63a44.72 44.72 0 0 0-1.88 3.26c-1.74-.16-3.43-.21-5.05-.15-9.2.34-18.46 3.39-26.77 8.83-7.91 5.18-14.64 12.26-19.46 20.49-8.35 14.25-11.67 32.38-9.45 51.33-10.69 4.94-19.21 14.22-24.19 26.43-5.09 12.5-5.77 26.75-1.85 39.08 6.91 21.74 26.41 39.93 51.47 48.32-6.46 12.8-3.52 30.35 7.59 41.33 10.81 10.69 28.07 15.11 45.03 11.54 7.88-1.66 15.81-4.95 23.62-9.8.31 17.79-.59 39.04-6.33 59.5-4.81 17.11-13.07 32.34-23.91 44.04-2.9 3.12-3.63 7.49-1.93 11.4 1.72 3.93 5.44 6.37 9.72 6.37h114.33c4.3 0 8.02-2.45 9.71-6.4 1.7-3.97.9-8.39-2.09-11.52-8.86-9.28-16.17-23.24-21.16-40.37-5.47-18.8-7.85-38.53-7.24-58.17 8.35 4.15 19.98 8.18 33.73 8.18 10.1 0 21.35-2.18 33.26-8.08 34.76-17.23 36.84-50.93 36.65-60.85-.28-14.8-2.97-24.15-10.79-36.54 7.3-4.94 24.5-18.8 30.33-42.82 4.89-20.14-.53-44.64-13.48-60.96h.01ZM295.14 393.27c5.38 18.49 13.08 33.07 22.87 43.34 1.44 1.51.88 3.2.68 3.68-.2.47-1.02 2.01-3.06 2.01H201.3c-2.05 0-2.89-1.55-3.09-2.03-.2-.47-.77-2.11.6-3.59 11.61-12.53 20.45-28.78 25.57-47 6.73-23.96 7.08-48.71 6.43-68.21v-.05c-.03-1.03-.07-2.04-.11-3.04-.42-10.69-1.19-23.07-5.08-34.79-4.26-12.83-11.94-23.07-21.63-28.84-1.4-.83-2.82-1.57-4.21-2.29-2.9-1.5-5.63-2.91-7.64-4.95-1.47-1.5-2.42-3.7-2.4-5.61 0-1.08.33-1.94.95-2.54.92-.9 3.64-1.4 6.53-1.4 1.91 0 3.9.22 5.48.69 9.53 2.81 25.06 12.29 36.92 22.52.99.86 2.37 1.11 3.6.66a3.623 3.623 0 0 0 2.33-2.83c3.65-22.8 9.92-45.18 18.65-66.51 1.22-2.99 2.38-5.6 4.26-7.34 1.37-1.27 3.67-2.1 5.14-1.3 1.92 1.04 2.49 4.35 1.75 10.1-3.06 23.79-2.71 47.9 1.02 71.66a3.618 3.618 0 0 0 6.52 1.54c5.5-7.72 11.66-15.02 18.28-21.7 1.49-1.5 3.2-3.03 4.6-3.03h.04c1.44.03 2.92 2.14 2.98 4.26.08 2.72-1.26 5.56-2.68 8.57l-.19.4c-10.38 22.06-16.41 46.21-17.98 70.64-.09.38-.11.76-.08 1.14-1.3 22.19 1.09 44.58 7.27 65.83h.01ZM411 191.25c-6.55 26.97-29.85 40.12-30.08 40.25a3.62 3.62 0 0 0-1.77 2.31c-.24.99-.06 2.03.51 2.87 8.72 12.99 11.32 21.02 11.61 35.77.11 5.49-.53 16.38-5.93 27.71-5.52 11.56-14.5 20.49-26.69 26.53-27.3 13.53-50.74 5.39-63.36-1.57 1.67-22.97 7.45-45.64 17.21-66.39l.19-.4c1.64-3.47 3.5-7.41 3.37-11.86-.19-6.85-5.37-11.19-10.06-11.29-4.69-.09-8.23 3.46-9.92 5.17-4.84 4.88-9.43 10.07-13.72 15.51a245.99 245.99 0 0 1 .21-60.99c.47-3.68 1.73-13.47-5.48-17.38-4.06-2.2-9.61-1.24-13.49 2.35-2.97 2.74-4.55 6.26-6.05 9.91a309.605 309.605 0 0 0-18.04 61.91c-13.4-10.6-27.01-17.68-34.72-19.95-3.99-1.18-14.35-2.19-19.12 2.48-2.01 1.97-3.09 4.61-3.12 7.64-.04 3.79 1.68 7.91 4.47 10.75 2.81 2.86 6.2 4.61 9.47 6.3 1.35.7 2.62 1.35 3.82 2.07 8.19 4.88 14.75 13.73 18.47 24.91 3.59 10.82 4.32 22.6 4.72 32.79 0 .35.03.71.04 1.07-8.27 5.71-16.63 9.48-24.87 11.21-14.62 3.07-29.35-.61-38.45-9.61-4.62-4.56-7.75-11.04-8.61-17.76-.88-6.91.67-13.42 4.36-18.33.72-.95.92-2.2.53-3.33-.38-1.13-1.3-2-2.45-2.32-24.92-6.98-44.49-24.2-51.09-44.95-3.42-10.75-2.82-23.2 1.65-34.16 4.61-11.32 12.68-19.67 22.73-23.52 1.58-.6 2.53-2.22 2.29-3.9-2.66-18.33.24-35.88 8.17-49.42 8.82-15.06 24.62-25.17 40.26-25.74 1.99-.07 4.12.06 6.34.4 1.59.24 3.15-.59 3.83-2.05.79-1.71 1.67-3.33 2.61-4.81 9.12-14.4 23.1-19.58 33.22-21.38 10.14-1.81 24.68-1.72 36.42 8.94 3.48 3.16 6.56 7.41 8.92 12.3.47.97 1.35 1.69 2.4 1.94 1.05.26 2.16.03 3.03-.62 8.73-6.56 19.12-9.86 29.25-9.3 19.91 1.11 38.2 17.37 41.63 37.02a3.62 3.62 0 0 0 5.11 2.65c7.57-3.58 16.71-4.09 25.75-1.43 8.83 2.6 16.77 7.91 22.35 14.95 11.46 14.44 16.44 36.96 12.12 54.76H411Z"/><path d="M315.62 457.22H201.29c-7.37 0-13.79-4.2-16.76-10.97-2.95-6.78-1.66-14.32 3.34-19.71 10-10.79 17.66-24.93 22.14-40.89 3.67-13.06 5.62-27.5 6.02-44.72-4.76 2.06-9.55 3.6-14.33 4.61-19.46 4.1-39.39-1.11-52.01-13.59-11.19-11.06-15.66-27.76-12-42.29-23.97-10.12-42.01-28.57-48.98-50.49-4.45-14.01-3.7-30.16 2.06-44.3 4.92-12.05 13.04-21.78 23.19-27.91-1.25-18.68 2.57-36.56 10.94-50.84 5.41-9.24 12.98-17.2 21.88-23.03 9.48-6.2 20.09-9.69 30.69-10.08l1.03-.03c9.4-14.55 24.61-24.34 42.89-27.6 18.97-3.38 36.4 1.08 49.07 12.58 2.08 1.89 4.03 4.01 5.83 6.34 9.06-4.4 18.82-6.41 28.58-5.87 12.99.73 25.81 6.16 36.08 15.29 6.98 6.19 12.37 13.67 15.83 21.92 7.74-1.3 15.89-.77 23.96 1.61 11.77 3.47 22.36 10.56 29.83 19.99l4.25 5.36-.26.26c11.42 17.79 15.8 41.82 10.92 61.93-5.2 21.43-18.55 35.54-27.7 43.04 5.84 10.82 8.11 20.53 8.38 34.36.21 11.06-2.12 48.64-40.92 67.88-11.89 5.89-24.23 8.88-36.67 8.88-8.8 0-17.53-1.46-26.07-4.36.45 15.24 2.77 30.17 6.95 44.52 4.65 15.96 11.34 28.83 19.34 37.21 5.15 5.39 6.53 13 3.59 19.85-2.92 6.82-9.34 11.06-16.77 11.06Zm-105.02-22.6h95.7c-7.43-9.93-13.46-22.42-17.97-37.3l-.03-.03-.55-1.89c-6.35-21.85-8.91-44.74-7.58-68.03-.02-.69.03-1.38.14-2.05 1.35-20.22 5.72-40.35 12.77-59.02-1.35 1.74-2.66 3.51-3.93 5.3-2.7 3.77-7.33 5.5-11.81 4.44a11.273 11.273 0 0 1-8.55-9.23 261.097 261.097 0 0 1-2.6-57.95 294.858 294.858 0 0 0-13.05 51.35c-.65 4.05-3.44 7.42-7.27 8.83-3.86 1.42-8.18.62-11.28-2.08-6.43-5.55-14.15-10.95-21.13-14.97 8.65 6.94 15.44 17.07 19.46 29.17 4.2 12.66 5.02 25.69 5.47 36.91.04 1.02.08 2.06.11 3.12v.15c.6 17.9.53 44.62-6.71 70.41-4.51 16.04-11.76 30.69-21.17 42.86Zm92.79-114c12.76 5.9 31.01 9.52 51.85-.81 10.61-5.26 18.41-12.98 23.17-22.96 4.73-9.93 5.28-19.45 5.18-24.25-.26-13.33-2.38-19.83-10.31-31.64-1.76-2.59-2.35-5.87-1.6-8.96.75-3.07 2.76-5.7 5.53-7.23.14-.08 20.65-11.98 26.32-35.34l.44-1.81c2.98-15.15-1.53-34.34-11.07-46.36-4.61-5.81-11.18-10.2-18.5-12.36-7.22-2.12-14.43-1.77-20.3 1.01-3.18 1.5-6.93 1.42-10.04-.19a11.37 11.37 0 0 1-5.93-8.1c-2.79-15.99-18.26-29.75-34.49-30.65-8.32-.45-16.93 2.3-24.21 7.77-2.74 2.05-6.2 2.75-9.49 1.93-3.23-.77-5.98-2.98-7.46-6.05-1.94-4.02-4.42-7.46-7.17-9.96-9.43-8.57-21.47-8.57-29.91-7.07-8.6 1.53-20.45 5.88-28.08 17.93-.77 1.21-1.48 2.52-2.13 3.92-2.11 4.53-7.02 7.17-11.95 6.42-1.74-.27-3.4-.37-4.92-.32-13.06.48-26.38 9.09-33.9 21.95-7.05 12.04-9.61 27.82-7.2 44.44.76 5.29-2.19 10.29-7.16 12.18-8.02 3.07-14.54 9.91-18.34 19.24-3.8 9.32-4.33 19.87-1.44 28.93 5.82 18.31 23.39 33.59 45.84 39.88 3.6 1 6.47 3.72 7.66 7.27 1.21 3.5.58 7.41-1.69 10.41-2.47 3.28-3.49 7.81-2.86 12.72.65 5.06 2.98 9.9 6.39 13.26 7.29 7.21 19.35 10.1 31.48 7.56 6.1-1.28 12.33-3.88 18.59-7.73-.42-8.81-1.28-18.61-4.19-27.4-3.14-9.43-8.51-16.79-15.11-20.73-.92-.55-1.94-1.08-3.12-1.69l-.3-.16c-3.63-1.87-7.74-4-11.41-7.73-4.24-4.31-6.73-10.38-6.67-16.21.05-5.03 1.98-9.67 5.42-13.04 7.88-7.72 21.93-5.76 26.67-4.36 7.49 2.21 17.53 7.41 27.38 14.04 3.89-17.61 9.29-34.9 16.09-51.54 1.78-4.34 3.86-8.87 7.95-12.65 6.25-5.78 15.44-7.2 22.36-3.46 7.85 4.26 11.02 12.7 9.44 25.09a238.531 238.531 0 0 0-1.69 41.3c.71-.73 1.42-1.46 2.13-2.18 2.02-2.04 7.36-7.44 15.19-7.44h.33c10.56.22 17.34 9.91 17.59 18.76.18 6.28-2.29 11.52-4.1 15.35l-.2.42c-8.6 18.29-14 37.98-16.05 58.59ZM197.4 241.73Z"/></g></svg>